<svg xmlns="http://www.w3.org/2000/svg" viewBox="0 0 64 64" role="img" aria-label="GhostFleet">
  <defs>
    <radialGradient id="sea" cx="50%" cy="44%" r="62%">
      <stop offset="0" stop-color="#0f3b4a"/>
      <stop offset=".58" stop-color="#06121a"/>
      <stop offset="1" stop-color="#010711"/>
    </radialGradient>
    <linearGradient id="wave" x1="10" y1="45" x2="55" y2="45">
      <stop offset="0" stop-color="#5eead4"/>
      <stop offset=".5" stop-color="#38bdf8"/>
      <stop offset="1" stop-color="#0e7490"/>
    </linearGradient>
  </defs>
  <circle cx="32" cy="32" r="29" fill="url(#sea)" stroke="#e2b96f" stroke-width="4"/>
  <path d="M32 8l4 10h-8l4-10z" fill="#f8d98a"/>
  <path d="M32 18v28" stroke="#f8fafc" stroke-width="3" stroke-linecap="round"/>
  <path d="M17 39c7 7 23 7 30 0-2 10-8 16-15 16s-13-6-15-16z" fill="#f8fafc"/>
  <path d="M22 32h20L32 16 22 32z" fill="#f8fafc"/>
  <path d="M12 45c8 5 16 5 24 0 5-3 10-3 16 0-7 9-17 13-28 10-6-2-10-5-12-10z" fill="url(#wave)" opacity=".92"/>
</svg>
